<svg xmlns="http://www.w3.org/2000/svg" viewBox="0 0 519.3 371"><defs/><g id="Ebene_2" data-name="Ebene 2"><g id="Ebene_1-2" data-name="Ebene 1"><path class="cls-1" d="M179.6 0v175h-59v-64.5H66.1V175h-59V0h59v62h54.5V0zM353.6 130.5V175H208.1V0h142.3v44.5H266V65h74v42.5h-74v23zM376.4 0h59v129.3h79V175h-138zM126.5 204q18 8 27.8 23t9.7 35q0 20-9.8 35t-27.7 23q-18 8-42.3 8H59v43H0V196h84.3q24.2 0 42.2 8zm-28 73.1q6-5.4 6-15.1t-6-15.1q-6-5.4-18-5.4H59v41h21.5q12 0 18-5.4zM328.8 326.5V371H183.2V196h142.3v44.5h-84.3V261h74v42.5h-74v23zM426.5 327h-16v44h-59V196h84.3q24.2 0 42.2 8t27.8 23q9.7 15 9.7 35 0 18.8-8.5 32.8T482.5 317l36.8 54h-63zm23.5-80.1q-6-5.4-18-5.4h-21.5v41H432q12 0 18-5.4t6-15.1q0-9.8-6-15.1z"/></g></g></svg>